<svg width="16" height="17" viewBox="0 0 16 17" fill="none" xmlns="http://www.w3.org/2000/svg">
<g id="eye-off" clip-path="url(#clip0_737_1092)">
<path id="Vector (Stroke)" fill-rule="evenodd" clip-rule="evenodd" d="M7.99843 3.83335C7.57882 3.83236 7.16051 3.88017 6.75194 3.9758C6.39344 4.05972 6.03479 3.83713 5.95088 3.47863C5.86696 3.12013 6.08956 2.76148 6.44806 2.67756C6.957 2.55843 7.47807 2.49885 8.00077 2.50002C8.00104 2.50002 8.0013 2.50002 8.00157 2.50002L8 3.16668V2.50002C8.00026 2.50002 8.00051 2.50002 8.00077 2.50002C10.6001 2.50031 12.5971 3.98445 13.903 5.37739C14.5621 6.08041 15.0653 6.78089 15.4038 7.305C15.5734 7.56769 15.7028 7.78778 15.7907 7.94401C15.8347 8.02217 15.8683 8.08448 15.8915 8.12831C15.9031 8.15023 15.9121 8.16753 15.9184 8.1799L15.926 8.19471L15.9283 8.19926L15.9291 8.20081C15.9292 8.20106 15.9296 8.20187 15.3333 8.50002L14.7454 8.18574C14.6892 8.29092 14.6314 8.3952 14.572 8.49853C14.4992 8.37284 14.4029 8.21292 14.2837 8.02837C13.9764 7.55247 13.5212 6.91962 12.9303 6.28931C11.7363 5.01572 10.067 3.83335 8 3.83335L7.99843 3.83335ZM14.572 8.49853C14.2271 9.09879 13.8293 9.66737 13.3832 10.1975C13.1462 10.4792 13.1824 10.8997 13.4641 11.1368C13.7458 11.3738 14.1664 11.3376 14.4034 11.0559C14.986 10.3636 15.4947 9.61229 15.9213 8.81429C16.0232 8.62359 16.0263 8.39529 15.9296 8.20187L15.3333 8.50002C14.737 8.79816 14.7371 8.79834 14.7372 8.79851L14.7368 8.79759L14.7326 8.78954C14.7286 8.78172 14.7221 8.76908 14.713 8.75193C14.6948 8.71763 14.6667 8.66536 14.6286 8.59769C14.6117 8.56758 14.5928 8.53446 14.572 8.49853ZM4.56985 4.13542C4.79331 4.42805 4.73723 4.84641 4.4446 5.06987C3.22126 6.00403 2.19641 7.17093 1.42838 8.50212C1.5011 8.62772 1.59728 8.78742 1.71628 8.97167C2.02362 9.44756 2.47878 10.0804 3.06969 10.7107C4.26263 11.9832 5.93008 13.1646 7.99456 13.1667C9.28309 13.1445 10.5309 12.7111 11.5559 11.9298C11.8487 11.7066 12.267 11.7631 12.4902 12.0559C12.7134 12.3487 12.657 12.767 12.3641 12.9902C11.1114 13.9451 9.58591 14.4742 8.0109 14.4999L8 14.5C5.40033 14.5 3.40299 13.0157 2.09698 11.6226C1.43789 10.9196 0.93471 10.2191 0.596224 9.69503C0.426567 9.43234 0.297195 9.21226 0.209314 9.05602C0.165349 8.97786 0.131693 8.91555 0.108502 8.87172C0.0969045 8.84981 0.0879168 8.8325 0.0815587 8.82013L0.0739934 8.80532L0.0716927 8.80077L0.0709135 8.79922C0.0707909 8.79897 0.070382 8.79816 0.666667 8.50002L0.0703819 8.79816C-0.0264925 8.60441 -0.023193 8.37567 0.0792296 8.1848C0.953436 6.55563 2.16594 5.13226 3.6354 4.01017C3.92803 3.78671 4.3464 3.84279 4.56985 4.13542ZM7.07441 6.6322C7.32541 6.90157 7.31052 7.32342 7.04115 7.57442C6.91015 7.69649 6.80508 7.84369 6.7322 8.00725C6.65933 8.1708 6.62014 8.34736 6.61699 8.52638C6.61383 8.70541 6.64676 8.88324 6.71382 9.04926C6.78088 9.21529 6.88069 9.3661 7.0073 9.49271C7.13391 9.61933 7.28473 9.71914 7.45075 9.7862C7.61678 9.85326 7.79461 9.88619 7.97363 9.88303C8.15266 9.87987 8.32922 9.84069 8.49277 9.76781C8.65633 9.69494 8.80353 9.58987 8.92559 9.45887C9.1766 9.1895 9.59844 9.17461 9.86782 9.42561C10.1372 9.67661 10.1521 10.0985 9.90107 10.3678C9.65694 10.6298 9.36254 10.84 9.03543 10.9857C8.70832 11.1315 8.35521 11.2098 7.99715 11.2162C7.6391 11.2225 7.28344 11.1566 6.95139 11.0225C6.61935 10.8884 6.31772 10.6887 6.06449 10.4355C5.81127 10.1823 5.61165 9.88067 5.47753 9.54862C5.34341 9.21658 5.27754 8.86092 5.28386 8.50286C5.29018 8.14481 5.36855 7.79169 5.5143 7.46459C5.66005 7.13748 5.87019 6.84307 6.13218 6.59894C6.40156 6.34794 6.8234 6.36283 7.07441 6.6322Z" fill="#A0A0A0"/>
<path id="Vector (Stroke)_2" fill-rule="evenodd" clip-rule="evenodd" d="M0.195262 0.695262C0.455612 0.434913 0.877722 0.434913 1.13807 0.695262L15.8047 15.3619C16.0651 15.6223 16.0651 16.0444 15.8047 16.3047C15.5444 16.5651 15.1223 16.5651 14.8619 16.3047L0.195262 1.63807C-0.0650874 1.37772 -0.0650874 0.955612 0.195262 0.695262Z" fill="#A0A0A0"/>
</g>
<defs>
<clipPath id="clip0_737_1092">
<rect width="16" height="16" fill="white" transform="translate(0 0.5)"/>
</clipPath>
</defs>
</svg>
