<svg width="137" height="15" viewBox="0 0 137 15" fill="none" xmlns="http://www.w3.org/2000/svg">
<path id="Vector" fill-rule="evenodd" clip-rule="evenodd" d="M0.515625 1.06004H9.33563V3.59804H3.50363V6.10004H5.30363C6.11939 6.10004 6.84586 6.20516 7.48162 6.4154C8.11738 6.62492 8.65163 6.91292 9.08363 7.2794C9.50579 7.63251 9.84398 8.07523 10.0736 8.5754C10.3033 9.08107 10.42 9.63069 10.4156 10.186C10.4156 10.798 10.3047 11.3683 10.083 11.896C9.86088 12.4241 9.52592 12.8972 9.10162 13.282C8.66962 13.678 8.13539 13.9898 7.49963 14.218C6.86387 14.4463 6.13163 14.56 5.30363 14.56H0.515625V1.06004ZM5.28562 12.076C5.94587 12.076 6.46786 11.914 6.85162 11.59C7.23538 11.266 7.42763 10.798 7.42763 10.186C7.42763 9.6698 7.24187 9.24428 6.86963 8.90804C6.49739 8.5718 5.96962 8.40404 5.28562 8.40404H3.44963V12.076H5.28562ZM11.7836 14.56V13.3L16.3736 1.06004H19.4156L23.9876 13.12V14.56H21.3956L20.3516 11.698H15.2036L14.1776 14.56H11.7836ZM17.7956 4.28204L16.0316 9.25004H19.5596L17.7956 4.28204ZM25.7336 1.06004H28.7216V6.37004H34.0136V1.06004H37.0016V14.56H34.0136V8.89004H28.7216V14.56H25.7336V1.06004ZM42.9416 14.56H39.9536V1.06004H42.9416V6.85604L47.8196 1.06004H50.1776V2.41004L45.7676 7.54004L50.6816 13.156V14.56H48.0536L42.9416 8.69204V14.56ZM57.1976 1.06004H61.5356C62.3276 1.06004 63.0447 1.16516 63.6863 1.3754C64.3285 1.58492 64.8743 1.88228 65.3243 2.26604C65.7722 2.64728 66.1289 3.12409 66.3683 3.6614C66.6145 4.20716 66.7376 4.82204 66.7376 5.50604C66.7376 6.09409 66.6277 6.67696 66.4136 7.22468C66.1968 7.78427 65.8624 8.2908 65.433 8.71004C64.9945 9.14204 64.4516 9.4898 63.8036 9.75404C63.1556 10.0183 62.3996 10.15 61.5356 10.15H60.1856V14.56H57.1976V1.06004ZM61.5176 7.66604C62.2139 7.66604 62.7596 7.47164 63.1556 7.08068C63.5516 6.69116 63.7496 6.17204 63.7496 5.52404C63.7496 4.94804 63.5574 4.47428 63.1736 4.10204C62.7899 3.7298 62.2376 3.54404 61.5176 3.54404H60.1316V7.66604H61.5176ZM68.7716 1.06004H77.2496V3.59804H71.7596V6.46004H76.6196V8.80004H71.7596V12.022H77.2496V14.56H68.7716V1.06004ZM84.4676 14.83C83.6519 14.83 82.947 14.7314 82.3523 14.5327C81.7583 14.3347 81.2636 14.092 80.8676 13.804C80.4716 13.516 80.1656 13.2064 79.9496 12.8774C79.7336 12.5469 79.6019 12.256 79.5536 12.004V10.654H81.9116C81.9354 10.7858 81.9923 10.9507 82.083 11.1494C82.173 11.3474 82.3134 11.536 82.5056 11.716C82.6979 11.896 82.9463 12.0487 83.2523 12.1747C83.559 12.3014 83.9334 12.364 84.3776 12.364C85.0616 12.364 85.5836 12.1963 85.9436 11.86C86.3036 11.5238 86.4836 11.086 86.4836 10.546C86.4836 10.0298 86.313 9.61004 85.971 9.28604C85.6283 8.96204 85.0674 8.80004 84.2876 8.80004H82.6676V6.53204H84.0716C84.7196 6.53204 85.202 6.36644 85.521 6.03668C85.8385 5.70692 85.9976 5.2958 85.9976 4.80404C85.9976 4.3238 85.8205 3.94292 85.4663 3.6614C85.1127 3.37916 84.6836 3.23804 84.1796 3.23804C83.8074 3.23804 83.4927 3.29204 83.2343 3.40004C83.0036 3.4905 82.7928 3.625 82.6136 3.79604C82.4574 3.95228 82.34 4.12004 82.263 4.30004C82.1845 4.48004 82.1399 4.64204 82.1276 4.78604H79.7696V3.43604C79.8179 3.2078 79.9352 2.9414 80.121 2.63468C80.3067 2.32868 80.5796 2.0414 80.9396 1.77068C81.2996 1.50068 81.7554 1.27028 82.3076 1.07804C82.8599 0.885799 83.5316 0.790039 84.3236 0.790039C84.9954 0.790039 85.6103 0.874279 86.169 1.04204C86.727 1.2098 87.2065 1.45244 87.609 1.7714C88.0107 2.08892 88.3225 2.47916 88.545 2.94068C88.7667 3.40292 88.8776 3.9278 88.8776 4.51604C88.8776 5.16404 88.7099 5.7458 88.3736 6.26204C88.0374 6.77828 87.5636 7.16204 86.9516 7.41404C87.7199 7.6178 88.3167 7.99868 88.743 8.5574C89.1685 9.1154 89.3816 9.7958 89.3816 10.6C89.3816 11.2243 89.2736 11.7967 89.0576 12.3187C88.8471 12.8332 88.5206 13.2923 88.1036 13.66C87.6839 14.0323 87.1676 14.3203 86.5556 14.524C85.9436 14.7278 85.2474 14.83 84.4676 14.83ZM102.45 14.83C101.573 14.83 100.77 14.6832 100.038 14.3887C99.3239 14.1063 98.6703 13.691 98.1116 13.1647C97.5496 12.6285 97.0946 11.9902 96.771 11.284C96.4216 10.5264 96.1937 9.71854 96.0956 8.89004H94.6016V14.56H91.6136V1.06004H94.6016V6.37004H96.1496C96.271 5.58712 96.5139 4.82797 96.8696 4.12004C97.2026 3.4559 97.654 2.8581 98.2016 2.35604C98.7514 1.85806 99.3895 1.46733 100.083 1.20404C100.797 0.928279 101.586 0.790039 102.45 0.790039C103.434 0.790039 104.322 0.964279 105.114 1.31204C105.886 1.64591 106.577 2.14334 107.139 2.77004C107.697 3.39428 108.125 4.12868 108.426 4.9754C108.726 5.8214 108.876 6.74804 108.876 7.75604C108.876 8.77628 108.726 9.71804 108.426 10.582C108.125 11.446 107.697 12.1927 107.138 12.8227C106.578 13.4547 105.887 13.9582 105.114 14.2987C104.322 14.6529 103.434 14.83 102.45 14.83ZM102.45 12.292C102.99 12.292 103.476 12.1783 103.908 11.95C104.338 11.7229 104.711 11.3994 104.996 11.0047C105.291 10.6029 105.515 10.1234 105.672 9.56468C105.832 8.97529 105.91 8.36677 105.906 7.75604C105.906 7.12028 105.828 6.53204 105.672 5.99204C105.515 5.45204 105.288 4.98404 104.988 4.58804C104.687 4.19204 104.325 3.88244 103.898 3.6614C103.473 3.43892 102.99 3.32804 102.45 3.32804C101.91 3.32804 101.427 3.43892 101.001 3.6614C100.575 3.88349 100.205 4.20052 99.921 4.58804C99.6265 4.98404 99.4019 5.45204 99.2456 5.99204C99.085 6.5661 99.0063 7.15996 99.0116 7.75604C99.0116 8.40404 99.0894 9.00668 99.2456 9.56468C99.4019 10.1234 99.6272 10.6029 99.921 11.0047C100.215 11.4072 100.575 11.7218 101.001 11.95C101.427 12.1783 101.91 12.292 102.45 12.292ZM113.916 5.34404V14.56H111.108V1.06004H114.78L118.056 7.93604L121.26 1.06004H124.914V14.56H121.944V5.34404L118.92 11.698H116.922L113.916 5.34404ZM127.866 1.06004H136.344V3.59804H130.854V6.46004H135.714V8.80004H130.854V12.022H136.344V14.56H127.866V1.06004Z" fill="#292929"/>
</svg>
